<svg width="100" height="110" viewBox="0 0 100 110" fill="none" xmlns="http://www.w3.org/2000/svg">
<path d="M97.3467 71.4671L67.0458 54.7619L97.3467 38.0567C99.8599 36.6712 100.748 33.4824 99.3138 30.9897L95.1632 23.772C93.7296 21.2793 90.5352 20.4566 88.0834 21.9488L58.5229 39.9415L59.2633 5.24388C59.3247 2.3661 57.018 0 54.1506 0H45.8494C42.9823 0 40.6753 2.3661 40.7369 5.24388L41.4771 39.9415L11.9166 21.949C9.46498 20.4568 6.2704 21.2795 4.83685 23.7722L0.686207 30.9899C-0.747341 33.4826 0.140317 36.6714 2.6535 38.057L32.9542 54.7619L2.65329 71.4671C0.140104 72.8526 -0.747554 76.0414 0.686207 78.5341L4.83685 85.7518C6.2704 88.2445 9.46498 89.0672 11.9166 87.575L41.4771 69.5823L40.7367 104.28C40.6753 107.158 42.9823 109.524 45.8494 109.524H54.1509C57.0179 109.524 59.3249 107.158 59.2635 104.28L58.5229 69.5823L88.0834 87.5748C90.535 89.067 93.7296 88.2443 95.1632 85.7516L99.3138 78.5339C100.747 76.0412 99.8599 72.8526 97.3467 71.4671Z" fill="url(#paint0_linear_99_21)"/>
<defs>
<linearGradient id="paint0_linear_99_21" x1="8.73016" y1="11.1111" x2="91.2698" y2="96.8254" gradientUnits="userSpaceOnUse">
<stop stop-color="#4539A0"/>
<stop offset="0.967156" stop-color="#D51970"/>
</linearGradient>
</defs>
</svg>
